<svg version="1.1" id="Layer_2" xmlns="http://www.w3.org/2000/svg" xmlns:xlink="http://www.w3.org/1999/xlink" x="0" y="0" viewBox="0 0 80.3 80.3" style="enable-background:new 0 0 80.3 80.3" xml:space="preserve"><style>.st3{fill:#fff}</style><circle cx="40.2" cy="40.2" r="40.2" style="fill:#0c2c48"/><circle cx="40.4" cy="39.4" r="26" style="fill:#81caff"/><defs><circle id="SVGID_3_" cx="40.4" cy="39.4" r="26"/></defs><clipPath id="SVGID_2_"><use xlink:href="#SVGID_3_" style="overflow:visible"/></clipPath><path style="clip-path:url(#SVGID_2_);fill:#55ab99" d="m30.2 36 8.6 2 5.5 6.4-6.1 4.2-4.3 5.1-.6 7.7-4.9-8.7-2.5-9.6z"/><path style="clip-path:url(#SVGID_2_);fill:#55ab99" d="m29.8 38-1.1-4.8 3.3-.3.3-3.2 4.4-2.5 4.3-3.9-1.1-3-3-.3-.2-2-9.5-11-6.6 3.4-4.4 13z"/><path style="clip-path:url(#SVGID_2_);fill:#55ab99" d="m34 19.6 1.6 2.7 2.2.2 3.4-5.5-3.1-.2zM54 34.2l-2.5 2.3-5.2-3.4.4-2.9 2.1-1.5 4.4-.3-1.7-4-2.7-2.2 4-8.5L71 24.5l-1.3 28.2-18.5 17-2-26.5 2.7-4 3.4-2.8 5.6-2.2-.9-2.7zM45.5 29.3l-4.9 3.2-.3-3.5 3.7-6.4 2.4-.9z"/><g><path class="st3" d="M65.1 27.7 32.7 19c-2-.5-5.5.5-6.1 2.7-.5 2.1 2.2 4.6 4.2 5.1l32.8 6.9 1.5-6z"/><path class="st3" d="M42.8 27.8c.2 1 4.9 19.3 4.9 19.3l6.2 2.1-1-19.2-10.1-2.2zM44.1 22.5c.6-.8 13.1-15 13.1-15l6.5 1L54 25.2l-9.9-2.7zM71.1 31.1c.3.1.5.4.4.7-.1.3-.4.5-.7.5L61 30c-.3-.1-.5-.4-.4-.7.1-.3.4-.5.7-.5l9.8 2.3z"/><g><path class="st3" d="M60.2 29.5c.3.3 5.6 7.6 5.6 7.6l4.8 1.3-2.7-7.2-7.7-1.7zM60.8 29c.4-.1 8.5-4.2 8.5-4.2l4.9 1-5.7 5.2-7.7-2z"/></g></g></svg>